<?xml version="1.0" standalone="no"?>
<!DOCTYPE svg PUBLIC "-//W3C//DTD SVG 20010904//EN"
 "http://www.w3.org/TR/2001/REC-SVG-20010904/DTD/svg10.dtd">
<svg version="1.0" xmlns="http://www.w3.org/2000/svg"
 width="16.000000pt" height="16.000000pt" viewBox="0 0 16.000000 16.000000"
 preserveAspectRatio="xMidYMid meet">
<metadata>
Created by potrace 1.11, written by Peter Selinger 2001-2013
</metadata>
<g transform="translate(0.000000,16.000000) scale(0.001563,-0.001563)"
fill="#000000" stroke="none">
<path d="M1696 9339 c-152 -17 -276 -62 -402 -145 -212 -139 -361 -379 -394
-634 -8 -61 -10 -1056 -8 -3500 3 -3216 4 -3419 21 -3480 89 -330 313 -563
637 -662 l75 -23 968 -3 967 -3 0 396 0 395 -906 2 -906 3 -29 33 -29 32 0
3361 c0 3658 -4 3400 55 3427 20 9 800 12 3378 12 3324 0 3352 0 3385 -20 17
-11 33 -21 34 -22 2 -2 5 -415 8 -918 l5 -915 395 0 395 0 0 955 0 955 -23 85
c-43 162 -123 299 -244 418 -147 144 -325 227 -543 252 -108 12 -6733 12
-6839 -1z"/>
<path d="M3973 6315 c-41 -17 -67 -67 -60 -114 2 -20 125 -421 271 -891 147
-470 285 -913 307 -985 22 -71 53 -170 69 -220 16 -49 50 -157 75 -240 57
-182 73 -233 168 -540 42 -132 112 -359 157 -505 45 -146 88 -283 95 -305 8
-22 85 -269 171 -550 142 -457 162 -513 190 -542 24 -24 41 -33 65 -33 76 0
73 -2 276 282 71 99 322 449 458 638 61 85 184 256 273 380 88 124 166 231
173 239 9 11 199 -173 1003 -976 752 -750 1003 -995 1041 -1015 108 -56 265
-63 379 -17 70 28 181 129 215 197 77 152 61 345 -39 470 -21 26 -472 481
-1003 1011 l-965 964 322 231 c176 128 452 326 611 441 550 396 601 434 613
460 25 55 2 126 -50 150 -18 8 -190 64 -383 124 -192 60 -525 164 -740 231
-214 67 -448 139 -520 162 -170 52 -243 75 -460 143 -99 31 -202 64 -230 72
-42 13 -1029 319 -1425 443 -751 235 -997 310 -1010 310 -8 -1 -29 -7 -47 -15z"/>
</g>
</svg>
