<?xml version="1.0" standalone="no"?>
<!DOCTYPE svg PUBLIC "-//W3C//DTD SVG 20010904//EN"
 "http://www.w3.org/TR/2001/REC-SVG-20010904/DTD/svg10.dtd">
<svg version="1.0" xmlns="http://www.w3.org/2000/svg"
 width="16.000000pt" height="16.000000pt" viewBox="0 0 16.000000 16.000000"
 preserveAspectRatio="xMidYMid meet">
<metadata>
Created by potrace 1.11, written by Peter Selinger 2001-2013
</metadata>
<g transform="translate(0.000000,16.000000) scale(0.001563,-0.001563)"
fill="#000000" stroke="none">
<path d="M1777 9344 c-1 -1 -35 -5 -75 -8 -293 -23 -574 -214 -710 -483 -12
-23 -33 -77 -48 -120 -27 -79 -29 -87 -40 -158 -9 -52 -11 -6801 -3 -6880 11
-98 19 -135 46 -209 101 -279 325 -486 618 -568 l80 -23 958 -3 957 -3 0 396
0 395 -897 0 c-865 0 -899 1 -929 19 -17 11 -36 32 -41 48 -5 17 -9 1334 -8
3378 1 2654 3 3355 13 3373 7 12 24 29 37 38 22 14 341 16 3383 16 2468 0
3366 -3 3381 -11 12 -7 29 -24 39 -38 16 -25 17 -87 18 -921 0 -621 4 -896 11
-900 13 -8 756 -7 769 1 14 8 9 1868 -4 1933 -83 393 -405 687 -790 720 -60 5
-6759 13 -6765 8z"/>
<path d="M3990 6317 c-36 -12 -80 -66 -80 -98 0 -10 22 -89 49 -176 27 -87
106 -340 176 -563 69 -223 136 -439 149 -480 13 -41 43 -136 66 -210 23 -74
54 -175 70 -225 15 -49 46 -148 69 -220 22 -71 81 -260 131 -420 50 -159 93
-297 95 -305 2 -8 32 -103 65 -210 34 -107 75 -239 91 -293 16 -54 31 -103 34
-108 4 -5 8 -17 10 -26 2 -10 17 -61 33 -113 17 -52 62 -196 100 -320 39 -124
100 -322 137 -440 37 -118 96 -309 132 -425 36 -115 72 -223 80 -238 18 -35
72 -59 116 -52 42 7 61 29 260 307 485 675 867 1206 883 1226 l19 22 980 -980
c539 -539 997 -993 1019 -1007 68 -48 159 -72 259 -68 79 2 97 7 164 40 149
74 239 207 247 366 4 84 -8 142 -46 219 -29 59 -116 150 -1009 1043 -537 538
-982 984 -988 991 -11 13 -26 2 544 411 149 107 275 198 280 203 6 4 71 51
145 105 571 409 566 405 573 457 9 61 -31 110 -112 134 -63 19 -377 117 -951
296 -267 84 -519 162 -560 175 -78 24 -514 160 -540 168 -8 3 -73 23 -145 45
-71 23 -191 60 -265 83 -74 24 -139 44 -145 45 -5 1 -98 30 -205 64 -107 34
-215 67 -240 75 -40 11 -483 150 -1240 387 -221 69 -321 100 -396 121 -11 3
-35 0 -54 -6z"/>
</g>
</svg>
