<?xml version="1.0" standalone="no"?>
<!DOCTYPE svg PUBLIC "-//W3C//DTD SVG 20010904//EN"
 "http://www.w3.org/TR/2001/REC-SVG-20010904/DTD/svg10.dtd">
<svg version="1.0" xmlns="http://www.w3.org/2000/svg"
 width="512.000000pt" height="512.000000pt" viewBox="0 0 512.000000 512.000000"
 preserveAspectRatio="xMidYMid meet">
<metadata>
Created by potrace 1.11, written by Peter Selinger 2001-2013
</metadata>
<g transform="translate(0.000000,512.000000) scale(0.100000,-0.100000)"
fill="#000000" stroke="none">
<path d="M451 5105 c-166 -37 -321 -161 -395 -319 -59 -124 -56 2 -55 -2226 1
-1681 3 -2056 14 -2107 46 -212 227 -392 439 -438 45 -10 188 -13 554 -14
l492 -1 1 77 c0 69 0 356 -1 439 l0 30 -429 0 -429 0 -36 28 c-20 15 -41 37
-48 49 -9 17 -12 466 -12 1928 0 1817 1 1909 18 1947 13 29 29 45 58 58 38 17
133 18 1941 18 2112 0 1938 5 1988 -65 l23 -32 0 -429 0 -428 45 -1 c52 0 444
0 479 1 l23 0 -3 518 c-4 510 -4 518 -27 582 -63 177 -193 308 -371 372 l-65
23 -2070 2 c-1734 1 -2080 -1 -2134 -12z"/>
<path d="M1773 3408 c-12 -6 -29 -25 -37 -43 -16 -34 -14 -66 9 -130 8 -22 46
-139 84 -260 38 -121 88 -277 110 -347 102 -319 129 -403 226 -708 160 -504
262 -823 310 -970 24 -74 71 -223 105 -330 88 -280 92 -292 128 -316 26 -18
39 -20 68 -14 21 5 45 17 55 27 9 10 155 232 324 493 169 261 309 476 310 478
2 2 52 -46 112 -107 59 -60 335 -339 612 -620 364 -369 515 -516 547 -532 57
-27 150 -33 209 -13 54 19 129 84 155 135 16 31 20 59 20 143 0 104 0 105 -35
150 -19 25 -88 99 -152 164 -321 323 -1058 1073 -1058 1076 0 2 198 135 440
296 242 161 452 304 467 318 35 32 43 71 24 115 -16 40 -40 55 -141 86 -38 12
-198 64 -355 116 -157 51 -514 168 -795 260 -280 92 -582 191 -670 220 -719
238 -995 325 -1020 324 -17 0 -40 -5 -52 -11z"/>
</g>
</svg>
