<?xml version="1.0" standalone="no"?>
<!DOCTYPE svg PUBLIC "-//W3C//DTD SVG 20010904//EN"
 "http://www.w3.org/TR/2001/REC-SVG-20010904/DTD/svg10.dtd">
<svg version="1.0" xmlns="http://www.w3.org/2000/svg"
 width="512.000000pt" height="512.000000pt" viewBox="0 0 512.000000 512.000000"
 preserveAspectRatio="xMidYMid meet">
<metadata>
Created by potrace 1.11, written by Peter Selinger 2001-2013
</metadata>
<g transform="translate(0.000000,512.000000) scale(0.100000,-0.100000)"
fill="#000000" stroke="none">
<path d="M0 2560 l0 -2560 2560 0 2560 0 0 2560 0 2560 -2560 0 -2560 0 0
-2560z m3860 1469 c70 -33 136 -99 169 -169 l26 -55 3 -312 3 -313 -160 0
-161 0 0 255 0 256 -25 24 -24 25 -1131 0 -1131 0 -24 -25 -25 -24 0 -1131 0
-1131 25 -24 24 -25 256 0 255 0 0 -161 0 -160 -312 3 -313 3 -55 26 c-70 33
-136 99 -169 169 l-26 55 0 1245 0 1245 26 55 c28 59 94 132 143 157 81 43 56
42 1341 40 l1230 -2 55 -26z m-857 -1245 c463 -152 850 -283 860 -292 24 -21
21 -64 -5 -89 -13 -12 -137 -96 -276 -187 l-254 -166 354 -361 c194 -198 361
-375 371 -392 34 -63 16 -140 -46 -194 -20 -18 -53 -35 -73 -39 -78 -15 -87
-8 -474 381 -200 201 -367 365 -370 365 -3 -1 -84 -123 -180 -273 -96 -149
-183 -280 -192 -289 -23 -23 -61 -23 -80 0 -13 14 -521 1583 -561 1729 -9 37
-9 45 8 63 10 11 31 20 47 20 15 0 407 -124 871 -276z"/>
</g>
</svg>
