<?xml version="1.0" standalone="no"?>
<!DOCTYPE svg PUBLIC "-//W3C//DTD SVG 20010904//EN"
 "http://www.w3.org/TR/2001/REC-SVG-20010904/DTD/svg10.dtd">
<svg version="1.0" xmlns="http://www.w3.org/2000/svg"
 width="16.000000pt" height="16.000000pt" viewBox="0 0 16.000000 16.000000"
 preserveAspectRatio="xMidYMid meet">
<metadata>
Created by potrace 1.11, written by Peter Selinger 2001-2013
</metadata>
<g transform="translate(0.000000,16.000000) scale(0.001563,-0.001563)"
fill="#000000" stroke="none">
<path d="M0 5120 l0 -5120 5120 0 5120 0 0 5120 0 5120 -5120 0 -5120 0 0
-5120z m8345 3812 c202 -66 308 -133 423 -266 65 -75 121 -175 159 -281 l28
-80 3 -887 3 -888 -356 0 -355 0 0 821 c0 543 -3 827 -10 840 -29 52 178 49
-3115 49 -3293 0 -3086 3 -3115 -49 -7 -14 -10 -1000 -10 -3080 l0 -3059 26
-31 26 -31 824 0 824 0 0 -361 0 -360 -857 4 c-920 4 -892 2 -1033 54 -235 87
-420 290 -492 540 l-23 78 0 3165 c0 3092 0 3167 19 3235 84 305 321 528 626
590 96 19 6346 16 6405 -3z m-3483 -2948 c398 -124 1142 -356 1653 -515 1127
-351 1149 -358 1450 -453 132 -41 293 -91 358 -111 135 -41 160 -54 177 -96
29 -68 24 -73 -355 -347 -193 -140 -366 -264 -385 -277 -19 -13 -75 -53 -125
-90 -49 -36 -117 -85 -150 -107 -33 -23 -109 -78 -170 -123 -60 -45 -136 -99
-167 -121 l-57 -39 903 -905 c1036 -1039 961 -950 961 -1135 0 -91 -3 -106
-31 -165 -91 -192 -313 -273 -515 -190 -48 21 -150 119 -965 932 l-910 909
-95 -133 c-53 -73 -155 -216 -229 -318 -73 -102 -148 -205 -165 -230 -17 -25
-71 -99 -118 -165 -48 -66 -157 -218 -244 -338 -103 -145 -165 -222 -182 -229
-36 -14 -90 2 -112 32 -16 21 -105 297 -334 1035 -18 61 -91 292 -160 515 -70
223 -160 513 -201 645 -41 132 -93 299 -116 370 -22 72 -49 157 -58 190 -10
33 -46 148 -79 255 -34 107 -77 245 -96 305 -19 61 -59 191 -90 290 -195 620
-225 720 -225 743 0 37 55 89 97 91 7 1 337 -101 735 -225z"/>
</g>
</svg>
