<?xml version="1.0" standalone="no"?>
<!DOCTYPE svg PUBLIC "-//W3C//DTD SVG 20010904//EN"
 "http://www.w3.org/TR/2001/REC-SVG-20010904/DTD/svg10.dtd">
<svg version="1.0" xmlns="http://www.w3.org/2000/svg"
 width="512.000000pt" height="512.000000pt" viewBox="0 0 512.000000 512.000000"
 preserveAspectRatio="xMidYMid meet">
<metadata>
Created by potrace 1.11, written by Peter Selinger 2001-2013
</metadata>
<g transform="translate(0.000000,512.000000) scale(0.100000,-0.100000)"
fill="#000000" stroke="none">
<path d="M585 4949 c-92 -13 -209 -76 -278 -148 -68 -72 -122 -177 -137 -271
-6 -43 -10 -718 -10 -1990 0 -2122 -4 -1989 63 -2114 65 -124 210 -231 346
-256 32 -6 286 -10 622 -10 l569 0 0 320 0 320 -460 0 c-447 0 -461 1 -480 20
-20 20 -20 33 -20 1743 0 1657 1 1725 18 1740 17 16 152 17 1744 17 1658 0
1726 -1 1741 -18 15 -17 17 -65 17 -480 l0 -462 320 0 320 0 0 553 c0 321 -4
579 -10 617 -33 211 -214 389 -425 420 -87 12 -3853 11 -3940 -1z"/>
<path d="M1896 3224 c-9 -8 -16 -26 -16 -40 0 -19 339 -1119 765 -2483 40
-128 79 -237 86 -242 22 -14 66 -10 83 6 8 9 129 174 268 368 139 194 277 385
306 426 l54 73 572 -570 c630 -628 609 -611 720 -599 90 9 160 56 202 137 25
48 25 162 0 210 -10 19 -272 290 -583 601 l-564 566 33 25 c18 13 213 154 433
313 220 158 403 293 407 299 14 20 8 63 -9 78 -21 18 -2682 848 -2718 848 -13
0 -31 -7 -39 -16z"/>
</g>
</svg>
