<?xml version="1.0" encoding="UTF-8"?>
<svg width="117px" height="30px" viewBox="0 0 117 30" version="1.1" xmlns="http://www.w3.org/2000/svg" xmlns:xlink="http://www.w3.org/1999/xlink">
    <!-- Generator: Sketch 55.2 (78181) - https://sketchapp.com -->
    <title>Inspect Logo Lockup Inline Copy</title>
    <desc>Created with Sketch.</desc>
    <g id="Inspect-Logo-Lockup-Inline-Copy" stroke="none" stroke-width="1" fill="none" fill-rule="evenodd">
        <path d="M30,17.7 L30,8.8 L26.8,8.8 L26.8,4 C26.8,3.5581722 26.4418278,3.2 26,3.2 L4,3.2 C3.5581722,3.2 3.2,3.5581722 3.2,4 L3.2,26 C3.2,26.4418278 3.5581722,26.8 4,26.8 L8.8,26.8 L8.8,30 L26.6,30 L3.4,30 C1.52223185,30 2.29960275e-16,28.4777681 0,26.6 L0,3.4 C-2.29960275e-16,1.52223185 1.52223185,3.44940413e-16 3.4,0 L26.6,0 C28.4777681,-3.44940413e-16 30,1.52223185 30,3.4 L30,17.7 Z M22.6777329,20.1271339 L29.6322782,27.1761175 C30.2574959,27.8098253 30.2574959,28.8372685 29.6322782,29.4709763 L29.5819911,29.5219996 C28.9567469,30.1556809 27.9430687,30.1556809 27.3178511,29.5219731 L20.3192976,22.4283838 L16.6792363,28.0459313 C16.4972148,28.3268372 16.1249887,28.4049951 15.8478462,28.2205018 C15.7335502,28.1444151 15.6483049,28.0310604 15.6062126,27.8991903 L10.1269823,10.7334102 C10.0249178,10.4136542 10.1979189,10.0705775 10.513391,9.96712703 L10.8829993,9.96712703 L27.8188019,15.5207617 C28.1342741,15.6242122 28.3072751,15.9672889 28.2052106,16.2870449 C28.1631183,16.4189151 28.077873,16.5322698 27.963577,16.6083565 L22.6777329,20.1271339 Z" id="Combined-Shape" fill="#07549A" fill-rule="nonzero"></path>
        <text id="INSPECT" font-family="Lato-Heavy, Lato" font-size="20" font-weight="600" fill="#07549A">
            <tspan x="36.2" y="23">INSPECT</tspan>
        </text>
    </g>
</svg>