<?xml version="1.0" encoding="UTF-8"?>
<svg width="34px" height="34px" viewBox="0 0 34 34" version="1.1" xmlns="http://www.w3.org/2000/svg" xmlns:xlink="http://www.w3.org/1999/xlink">
    <!-- Generator: Sketch 58 (84663) - https://sketch.com -->
    <title>google-podcasts</title>
    <desc>Created with Sketch.</desc>
    <g id="google-podcasts" stroke="none" stroke-width="1" fill="none" fill-rule="evenodd">
        <path d="M10.2555408,-4.14336123e-16 L23.7444592,4.14336123e-16 C27.3105342,-2.4074122e-16 28.6036791,0.371302445 29.9073828,1.06853082 C31.2110865,1.76575919 32.2342408,2.78891348 32.9314692,4.09261719 C33.6286976,5.39632089 34,6.68946584 34,10.2555408 L34,23.7444592 C34,27.3105342 33.6286976,28.6036791 32.9314692,29.9073828 C32.2342408,31.2110865 31.2110865,32.2342408 29.9073828,32.9314692 C28.6036791,33.6286976 27.3105342,34 23.7444592,34 L10.2555408,34 C6.68946584,34 5.39632089,33.6286976 4.09261719,32.9314692 C2.78891348,32.2342408 1.76575919,31.2110865 1.06853082,29.9073828 C0.371302445,28.6036791 1.60494146e-16,27.3105342 -2.76224082e-16,23.7444592 L2.76224082e-16,10.2555408 C-1.60494146e-16,6.68946584 0.371302445,5.39632089 1.06853082,4.09261719 C1.76575919,2.78891348 2.78891348,1.76575919 4.09261719,1.06853082 C5.39632089,0.371302445 6.68946584,2.4074122e-16 10.2555408,-4.14336123e-16 Z" id="Rectangle" fill="#FFFFFF" fill-rule="nonzero"></path>
        <g id="Group" transform="translate(5.000000, 5.000000)" fill-rule="nonzero">
            <path d="M11.4799998,19.0399997 C12.2531984,19.0399997 12.8799998,19.666801 12.8799998,20.4399997 L12.8799998,22.1199996 C12.8799998,22.8931983 12.2531984,23.5199996 11.4799998,23.5199996 C10.7068012,23.5199996 10.0799998,22.8931983 10.0799998,22.1199996 L10.0799998,20.4399997 C10.0799998,19.666801 10.7068012,19.0399997 11.4799998,19.0399997 Z M11.4799998,6.1599999 C12.2531984,6.1599999 12.8799998,6.78680123 12.8799998,7.55999987 L12.8799998,15.9599997 C12.8799998,16.7331984 12.2531984,17.3599997 11.4799998,17.3599997 C10.7068012,17.3599997 10.0799998,16.7331984 10.0799998,15.9599997 L10.0799998,7.55999987 C10.0799998,6.78680123 10.7068012,6.1599999 11.4799998,6.1599999 Z M11.4799998,0 C12.2531984,-1.42034285e-16 12.8799998,0.62680134 12.8799998,1.39999998 L12.8799998,3.07999995 C12.8799998,3.85319858 12.2531984,4.47999992 11.4799998,4.47999992 C10.7068012,4.47999992 10.0799998,3.85319858 10.0799998,3.07999995 L10.0799998,1.39999998 C10.0799998,0.62680134 10.7068012,1.42034285e-16 11.4799998,0 Z" id="Combined-Shape" fill="#FAB908"></path>
            <rect id="Rectangle-path" fill="#0066D9" x="0" y="9.51999984" width="2.79999995" height="4.47999992" rx="1.39999998"></rect>
            <rect id="Rectangle-path-Copy-3" fill="#4285F4" x="20.7199996" y="9.51999984" width="2.79999995" height="4.47999992" rx="1.39999998"></rect>
            <path d="M6.43999989,14.5599998 C7.21319853,14.5599998 7.83999987,15.1868011 7.83999987,15.9599997 L7.83999987,17.6399997 C7.83999987,18.4131983 7.21319853,19.0399997 6.43999989,19.0399997 C5.66680125,19.0399997 5.03999991,18.4131983 5.03999991,17.6399997 L5.03999991,15.9599997 C5.03999991,15.1868011 5.66680125,14.5599998 6.43999989,14.5599998 Z M6.43999989,4.47999992 C7.21319853,4.47999992 7.83999987,5.10680126 7.83999987,5.8799999 L7.83999987,11.4799998 C7.83999987,12.2531984 7.21319853,12.8799998 6.43999989,12.8799998 C5.66680125,12.8799998 5.03999991,12.2531984 5.03999991,11.4799998 L5.03999991,5.8799999 C5.03999991,5.10680126 5.66680125,4.47999992 6.43999989,4.47999992 Z" id="Combined-Shape" fill="#EA4335"></path>
            <path d="M17.0799997,10.6399998 C17.8531983,10.6399998 18.4799997,11.2668012 18.4799997,12.0399998 L18.4799997,17.6399997 C18.4799997,18.4131983 17.8531983,19.0399997 17.0799997,19.0399997 C16.3068011,19.0399997 15.6799997,18.4131983 15.6799997,17.6399997 L15.6799997,12.0399998 C15.6799997,11.2668012 16.3068011,10.6399998 17.0799997,10.6399998 Z M17.0799997,4.47999992 C17.8531983,4.47999992 18.4799997,5.10680126 18.4799997,5.8799999 L18.4799997,7.55999987 C18.4799997,8.33319851 17.8531983,8.95999985 17.0799997,8.95999985 C16.3068011,8.95999985 15.6799997,8.33319851 15.6799997,7.55999987 L15.6799997,5.8799999 C15.6799997,5.10680126 16.3068011,4.47999992 17.0799997,4.47999992 Z" id="Combined-Shape" fill="#34A853"></path>
        </g>
    </g>
</svg>