<?xml version="1.0" encoding="UTF-8"?>
<svg width="34px" height="34px" viewBox="0 0 34 34" version="1.1" xmlns="http://www.w3.org/2000/svg" xmlns:xlink="http://www.w3.org/1999/xlink">
    <!-- Generator: Sketch 55.2 (78181) - https://sketchapp.com -->
    <title>RSS</title>
    <desc>Created with Sketch.</desc>
    <g id="Page-1" stroke="none" stroke-width="1" fill="none" fill-rule="evenodd">
        <g id="RSS" fill-rule="nonzero">
            <path d="M10.2555408,-4.14336123e-16 L23.7444592,4.14336123e-16 C27.3105342,-2.4074122e-16 28.6036791,0.371302445 29.9073828,1.06853082 C31.2110865,1.76575919 32.2342408,2.78891348 32.9314692,4.09261719 C33.6286976,5.39632089 34,6.68946584 34,10.2555408 L34,23.7444592 C34,27.3105342 33.6286976,28.6036791 32.9314692,29.9073828 C32.2342408,31.2110865 31.2110865,32.2342408 29.9073828,32.9314692 C28.6036791,33.6286976 27.3105342,34 23.7444592,34 L10.2555408,34 C6.68946584,34 5.39632089,33.6286976 4.09261719,32.9314692 C2.78891348,32.2342408 1.76575919,31.2110865 1.06853082,29.9073828 C0.371302445,28.6036791 1.60494146e-16,27.3105342 -2.76224082e-16,23.7444592 L2.76224082e-16,10.2555408 C-1.60494146e-16,6.68946584 0.371302445,5.39632089 1.06853082,4.09261719 C1.76575919,2.78891348 2.78891348,1.76575919 4.09261719,1.06853082 C5.39632089,0.371302445 6.68946584,2.4074122e-16 10.2555408,-4.14336123e-16 Z" id="Rectangle" fill="#FF9D00"></path>
            <path d="M9.43,21.81 C7.91805382,21.8155181 6.69633272,23.0446906 6.69999983,24.5566423 C6.70368347,26.0685941 7.93136603,27.2918124 9.4433212,27.2899818 C10.9552763,27.2881471 12.18,26.0619563 12.18,24.55 C12.1744913,23.0351236 10.9448864,21.81 9.43,21.81 L9.43,21.81 Z" id="Shape-path" fill="#FFFFFF"></path>
            <path d="M6.69,13.6899963 L6.69,17.6899963 C9.2519917,17.6926508 11.7079977,18.712941 13.5177241,20.526418 C15.3274504,22.3398951 16.3426535,24.7980083 16.34,27.36 L20.340033,27.36 C20.3479727,23.7355185 18.9130523,20.2569003 16.3520276,17.6921231 C13.7910029,15.127346 10.3144892,13.687334 6.69,13.6899963 L6.69,13.6899963 Z" id="Shape-path" fill="#FFFFFF"></path>
            <path d="M6.69,6.69 L6.69,10.69 C15.8686571,10.7064178 23.3115182,18.1314089 23.35,27.31 L27.35,27.31 C27.3334485,15.9115146 18.0884975,6.68 6.69,6.68 L6.69,6.69 Z" id="Shape-path" fill="#FFFFFF"></path>
        </g>
    </g>
</svg>