<?xml version="1.0" encoding="UTF-8"?>
<svg width="34px" height="34px" viewBox="0 0 34 34" version="1.1" xmlns="http://www.w3.org/2000/svg" xmlns:xlink="http://www.w3.org/1999/xlink">
    <!-- Generator: Sketch 61.1 (89650) - https://sketch.com -->
    <title>spotify</title>
    <desc>Created with Sketch.</desc>
    <g id="spotify" stroke="none" stroke-width="1" fill="none" fill-rule="evenodd">
        <path d="M10.2555408,-4.14336123e-16 L23.7444592,4.14336123e-16 C27.3105342,-2.4074122e-16 28.6036791,0.371302445 29.9073828,1.06853082 C31.2110865,1.76575919 32.2342408,2.78891348 32.9314692,4.09261719 C33.6286976,5.39632089 34,6.68946584 34,10.2555408 L34,23.7444592 C34,27.3105342 33.6286976,28.6036791 32.9314692,29.9073828 C32.2342408,31.2110865 31.2110865,32.2342408 29.9073828,32.9314692 C28.6036791,33.6286976 27.3105342,34 23.7444592,34 L10.2555408,34 C6.68946584,34 5.39632089,33.6286976 4.09261719,32.9314692 C2.78891348,32.2342408 1.76575919,31.2110865 1.06853082,29.9073828 C0.371302445,28.6036791 1.60494146e-16,27.3105342 -2.76224082e-16,23.7444592 L2.76224082e-16,10.2555408 C-1.60494146e-16,6.68946584 0.371302445,5.39632089 1.06853082,4.09261719 C1.76575919,2.78891348 2.78891348,1.76575919 4.09261719,1.06853082 C5.39632089,0.371302445 6.68946584,2.4074122e-16 10.2555408,-4.14336123e-16 Z" id="Rectangle" fill="#FFFFFF" fill-rule="nonzero"></path>
        <path d="M17.0000716,5 C23.627595,5 29,10.3724371 29,16.9998567 C29,23.6277062 23.627595,29 17.0000716,29 C10.3726917,29 5,23.6277062 5,16.9998567 C5,10.3724371 10.3726917,5 17.0000716,5 Z M10.6001003,19.9421444 C10.1967257,20.0339969 9.94538679,20.4350812 10.0376686,20.8375984 C10.1295205,21.2399723 10.5306024,21.4923158 10.9331172,21.4000335 C15.1101578,20.4458283 18.6569883,20.8348757 21.475022,22.5571451 C21.8272403,22.7726616 22.2877895,22.6617508 22.5033047,22.3082406 C22.7189633,21.9557337 22.6079099,21.4950384 22.2552616,21.2796652 C19.0923176,19.3468946 15.1712013,18.8970899 10.6001003,19.9421444 Z M10.1835426,16.1601447 C9.68974903,16.3106051 9.410611,16.8322009 9.55978074,17.3270005 C9.70995358,17.8207969 10.2325494,18.0997935 10.727346,17.9503362 C14.5425675,16.7922215 19.4600118,17.3664068 22.6848591,19.3487575 C23.1246306,19.619013 23.7003887,19.4810193 23.9716456,19.0406721 C24.2420427,18.6013279 24.10362,18.0252797 23.6638485,17.7544511 C19.959967,15.4782012 14.5419943,14.8376701 10.1835426,16.1601447 Z M9.50575866,12.1025877 C8.91237524,12.2828535 8.57792541,12.9094849 8.75761705,13.5027286 C8.93730859,14.0956857 9.56436619,14.4304241 10.1573196,14.2505881 C13.8498809,13.1298736 20.2302208,13.3410912 24.098318,15.6382623 C24.6303713,15.9549455 25.3197621,15.7791218 25.6361568,15.2457758 C25.9524082,14.7132895 25.7774454,14.0244677 25.2439592,13.7077846 C20.790933,11.0644114 13.7445593,10.8159369 9.50575866,12.1025877 Z" id="Combined-Shape" fill="#1ED760" fill-rule="nonzero"></path>
    </g>
</svg>