<?xml version="1.0" encoding="UTF-8"?>
<svg width="34px" height="34px" viewBox="0 0 34 34" version="1.1" xmlns="http://www.w3.org/2000/svg" xmlns:xlink="http://www.w3.org/1999/xlink">
    <!-- Generator: Sketch 55.2 (78181) - https://sketchapp.com -->
    <title>stitcher</title>
    <desc>Created with Sketch.</desc>
    <g id="Page-1" stroke="none" stroke-width="1" fill="none" fill-rule="evenodd">
        <g id="stitcher" fill-rule="nonzero">
            <path d="M10.2555408,-4.14336123e-16 L23.7444592,4.14336123e-16 C27.3105342,-2.4074122e-16 28.6036791,0.371302445 29.9073828,1.06853082 C31.2110865,1.76575919 32.2342408,2.78891348 32.9314692,4.09261719 C33.6286976,5.39632089 34,6.68946584 34,10.2555408 L34,23.7444592 C34,27.3105342 33.6286976,28.6036791 32.9314692,29.9073828 C32.2342408,31.2110865 31.2110865,32.2342408 29.9073828,32.9314692 C28.6036791,33.6286976 27.3105342,34 23.7444592,34 L10.2555408,34 C6.68946584,34 5.39632089,33.6286976 4.09261719,32.9314692 C2.78891348,32.2342408 1.76575919,31.2110865 1.06853082,29.9073828 C0.371302445,28.6036791 1.60494146e-16,27.3105342 -2.76224082e-16,23.7444592 L2.76224082e-16,10.2555408 C-1.60494146e-16,6.68946584 0.371302445,5.39632089 1.06853082,4.09261719 C1.76575919,2.78891348 2.78891348,1.76575919 4.09261719,1.06853082 C5.39632089,0.371302445 6.68946584,2.4074122e-16 10.2555408,-4.14336123e-16 Z" id="Rectangle" fill="#000"></path>
            <path d="M22.98,12 L22.621,12 L22.621,22.125 L22.98,22.125 L22.98,12 L22.98,12 Z M22.235,13.125 L21.875,13.125 L21.875,21 L22.235,21 L22.235,13.125 L22.235,13.125 Z M21.119,13.125 L5,13.125 L5,21 L21.119,21 L21.119,13.125 L21.119,13.125 Z M29,13.125 L24.492,13.125 L24.492,21 L29,21 L29,13.125 L29,13.125 Z M23.744,13.125 L23.384,13.125 L23.384,21 L23.744,21 L23.744,13.125 L23.744,13.125 Z" id="Shape" fill="#FFF"></path>
        </g>
    </g>
</svg>