<?xml version="1.0" encoding="UTF-8"?>
<svg width="34px" height="34px" viewBox="0 0 34 34" version="1.1" xmlns="http://www.w3.org/2000/svg" xmlns:xlink="http://www.w3.org/1999/xlink">
    <!-- Generator: Sketch 63.1 (92452) - https://sketch.com -->
    <title>whatpods</title>
    <desc>Created with Sketch.</desc>
    <g id="whatpods" stroke="none" stroke-width="1" fill="none" fill-rule="evenodd">
        <path d="M10.2555408,-4.14336123e-16 L23.7444592,4.14336123e-16 C27.3105342,-2.4074122e-16 28.6036791,0.371302445 29.9073828,1.06853082 C31.2110865,1.76575919 32.2342408,2.78891348 32.9314692,4.09261719 C33.6286976,5.39632089 34,6.68946584 34,10.2555408 L34,23.7444592 C34,27.3105342 33.6286976,28.6036791 32.9314692,29.9073828 C32.2342408,31.2110865 31.2110865,32.2342408 29.9073828,32.9314692 C28.6036791,33.6286976 27.3105342,34 23.7444592,34 L10.2555408,34 C6.68946584,34 5.39632089,33.6286976 4.09261719,32.9314692 C2.78891348,32.2342408 1.76575919,31.2110865 1.06853082,29.9073828 C0.371302445,28.6036791 1.60494146e-16,27.3105342 -2.76224082e-16,23.7444592 L2.76224082e-16,10.2555408 C-1.60494146e-16,6.68946584 0.371302445,5.39632089 1.06853082,4.09261719 C1.76575919,2.78891348 2.78891348,1.76575919 4.09261719,1.06853082 C5.39632089,0.371302445 6.68946584,2.4074122e-16 10.2555408,-4.14336123e-16 Z" id="Rectangle" fill="#F1F1F1" fill-rule="nonzero"></path>
        <g id="Group" transform="translate(3.000000, 7.000000)" fill="#854FF7">
            <path d="M22.9963282,16.4396615 C25.9506872,15.0738359 28.0005026,12.0840103 28.0005026,8.61538462 C28.0005026,3.85723692 24.1432513,0 19.3851251,0 C18.0955959,0 16.8722472,0.283310462 15.7739077,0.791078974 L16.375777,2.09513231 C17.2910554,1.67198769 18.310521,1.43589744 19.3851251,1.43589744 C23.3502051,1.43589744 26.5646051,4.65026154 26.5646051,8.61538462 C26.5646051,11.5059179 24.8564615,13.9974154 22.394479,15.1356513 L22.9963282,16.4396615 Z M21.7926082,13.8315692 C23.7621641,12.9210667 25.1287077,10.9278256 25.1287077,8.61538462 C25.1287077,5.44328615 22.5572164,2.87179487 19.3851251,2.87179487 C18.525439,2.87179487 17.7098708,3.06066564 16.9776492,3.39918564 L17.5795128,4.70323179 C18.128679,4.44934359 18.7403641,4.30769231 19.3851251,4.30769231 C21.7641918,4.30769231 23.6928103,6.23631077 23.6928103,8.61538462 C23.6928103,10.3496615 22.6679169,11.8446462 21.1907446,12.527559 L21.7926082,13.8315692 Z" id="Shape"></path>
            <circle id="Oval" fill-rule="nonzero" cx="19.3851179" cy="8.61538462" r="2.87179487"></circle>
            <path d="M15.9800308,5.94181537 C17.0601128,6.44030081 17.5315179,7.71995537 17.0330462,8.80000871 L12.7253538,18.133342 C12.3732718,18.8961626 11.6098769,19.3845831 10.7697333,19.3845831 C9.92966154,19.3845831 9.16619487,18.8961626 8.81411282,18.133342 L6.46205538,13.0371267 L4.10996923,18.133342 C3.61148308,19.2134241 2.33183282,19.6848292 1.25177949,19.1863574 C0.171728308,18.6878856 -0.299724205,17.4082138 0.198760513,16.3281318 L4.50645641,6.99483435 C4.85850974,6.2320483 5.62194769,5.74357427 6.46205538,5.74357427 C7.30218462,5.74357427 8.06557949,6.2320483 8.41766154,6.99483435 L10.7697333,12.091021 L13.1218051,6.99483435 C13.6203487,5.91478317 14.8999487,5.44333065 15.9800308,5.94181537 Z" id="Path" transform="translate(8.615903, 12.564086) scale(-1, 1) rotate(-180.000000) translate(-8.615903, -12.564086) "></path>
        </g>
    </g>
</svg>