<?xml version="1.0" encoding="UTF-8"?>
<svg width="34px" height="34px" viewBox="0 0 34 34" version="1.1" xmlns="http://www.w3.org/2000/svg" xmlns:xlink="http://www.w3.org/1999/xlink">
    <!-- Generator: Sketch 61.1 (89650) - https://sketch.com -->
    <title>youtube</title>
    <desc>Created with Sketch.</desc>
    <g id="youtube" stroke="none" stroke-width="1" fill="none" fill-rule="evenodd">
        <path d="M10.2555408,-4.14336123e-16 L23.7444592,4.14336123e-16 C27.3105342,-2.4074122e-16 28.6036791,0.371302445 29.9073828,1.06853082 C31.2110865,1.76575919 32.2342408,2.78891348 32.9314692,4.09261719 C33.6286976,5.39632089 34,6.68946584 34,10.2555408 L34,23.7444592 C34,27.3105342 33.6286976,28.6036791 32.9314692,29.9073828 C32.2342408,31.2110865 31.2110865,32.2342408 29.9073828,32.9314692 C28.6036791,33.6286976 27.3105342,34 23.7444592,34 L10.2555408,34 C6.68946584,34 5.39632089,33.6286976 4.09261719,32.9314692 C2.78891348,32.2342408 1.76575919,31.2110865 1.06853082,29.9073828 C0.371302445,28.6036791 1.60494146e-16,27.3105342 -2.76224082e-16,23.7444592 L2.76224082e-16,10.2555408 C-1.60494146e-16,6.68946584 0.371302445,5.39632089 1.06853082,4.09261719 C1.76575919,2.78891348 2.78891348,1.76575919 4.09261719,1.06853082 C5.39632089,0.371302445 6.68946584,2.4074122e-16 10.2555408,-4.14336123e-16 Z" id="Rectangle" fill="#FF0000" fill-rule="nonzero"></path>
        <path d="M16.9931628,9 C16.9931628,9 10.1172739,9 8.39151739,9.46603016 C7.4674878,9.73434224 6.70662117,10.5250696 6.44843608,11.4994761 C6,13.2929427 6,17.0070646 6,17.0070646 C6,17.0070646 6,20.735286 6.44843608,22.5005244 C6.70662117,23.4749176 7.45389881,24.2515232 8.39151739,24.5198418 C10.1308629,25 16.9931628,25 16.9931628,25 C16.9931628,25 23.8826831,25 25.6084038,24.5339706 C26.5460292,24.2656576 27.2932916,23.5031707 27.5378893,22.5146532 C27.9999607,20.7352905 27.9999607,17.0211934 27.9999607,17.0211934 C27.9999607,17.0211934 28.0134991,13.2929427 27.5378893,11.4994761 C27.2932916,10.5250696 26.5460292,9.74848247 25.6084038,9.49428779 C23.8826831,9 16.9931628,9 16.9931628,9 Z M14.8053646,13.575528 L20.5262703,17.0070646 L14.8053646,20.4244724 L14.8053646,13.575528 Z" id="path4156" fill="#FFFFFF" fill-rule="nonzero"></path>
    </g>
</svg>